<svg width="24" height="24" viewBox="0 0 24 24" fill="none" xmlns="http://www.w3.org/2000/svg">
<circle cx="12" cy="12" r="10" fill="black"/>
<circle cx="12" cy="12" r="8" fill="white"/>
<path d="M10.9329 3.09682C9.75983 3.24086 8.6266 3.61454 7.59793 4.19654C6.56926 4.77853 5.66529 5.55744 4.93764 6.48879C4.21 7.42013 3.67291 8.48568 3.35707 9.62459C3.04122 10.7635 2.95279 11.9535 3.09683 13.1266C3.24086 14.2997 3.61455 15.4329 4.19654 16.4616C4.77853 17.4902 5.55744 18.3942 6.48879 19.1218C7.42014 19.8495 8.48568 20.3866 9.6246 20.7024C10.7635 21.0183 11.9535 21.1067 13.1266 20.9627L12.0297 12.0297L10.9329 3.09682Z" fill="black"/>
<path d="M12.4875 15.9702C13.5404 15.8409 14.4989 15.2986 15.152 14.4626C15.8052 13.6267 16.0995 12.5655 15.9702 11.5125C15.8409 10.4596 15.2986 9.50109 14.4626 8.84796C13.6267 8.19482 12.5655 7.90053 11.5125 8.02981L12 12L12.4875 15.9702Z" fill="black"/>
<path d="M11.5125 8.02982C10.4596 8.1591 9.50109 8.70138 8.84796 9.53735C8.19482 10.3733 7.90053 11.4345 8.02981 12.4875C8.1591 13.5404 8.70138 14.4989 9.53735 15.152C10.3733 15.8052 11.4345 16.0995 12.4875 15.9702L12 12L11.5125 8.02982Z" fill="white"/>
</svg>
