<svg width="24" height="24" viewBox="0 0 24 24" fill="none" xmlns="http://www.w3.org/2000/svg">
<circle cx="12" cy="12" r="9" stroke="black" stroke-width="2"/>
<mask id="mask0_29_122" style="mask-type:luminance" maskUnits="userSpaceOnUse" x="4" y="3" width="13" height="17">
<mask id="path-2-outside-1_29_122" maskUnits="userSpaceOnUse" x="3.08468" y="3.57215" width="13.8605" height="17.3432" fill="black">
<rect fill="white" x="3.08468" y="3.57215" width="13.8605" height="17.3432"/>
<path d="M11.5125 8.02982C10.4596 8.1591 9.50109 8.70138 8.84796 9.53735C8.19483 10.3733 7.90053 11.4345 8.02982 12.4875C8.15911 13.5404 8.70138 14.4989 9.53736 15.152C10.3733 15.8052 11.4345 16.0995 12.4875 15.9702L12 12L11.5125 8.02982Z"/>
</mask>
<path d="M11.5125 8.02982C10.4596 8.1591 9.50109 8.70138 8.84796 9.53735C8.19483 10.3733 7.90053 11.4345 8.02982 12.4875C8.15911 13.5404 8.70138 14.4989 9.53736 15.152C10.3733 15.8052 11.4345 16.0995 12.4875 15.9702L12 12L11.5125 8.02982Z" fill="white"/>
<path d="M11.5125 8.02982C10.4596 8.1591 9.50109 8.70138 8.84796 9.53735C8.19483 10.3733 7.90053 11.4345 8.02982 12.4875C8.15911 13.5404 8.70138 14.4989 9.53736 15.152C10.3733 15.8052 11.4345 16.0995 12.4875 15.9702L12 12L11.5125 8.02982Z" stroke="white" stroke-width="8" mask="url(#path-2-outside-1_29_122)"/>
</mask>
<g mask="url(#mask0_29_122)">
<path d="M12.4875 15.9702C13.5404 15.8409 14.4989 15.2986 15.152 14.4626C15.8052 13.6267 16.0995 12.5655 15.9702 11.5125C15.8409 10.4596 15.2986 9.50109 14.4626 8.84796C13.6267 8.19482 12.5655 7.90053 11.5125 8.02981L12 12L12.4875 15.9702Z" fill="black"/>
<path d="M10.9032 3.06708C9.73009 3.21112 8.59686 3.58481 7.56819 4.1668C6.53952 4.74879 5.63555 5.5277 4.9079 6.45905C4.18026 7.39039 3.64318 8.45594 3.32733 9.59485C3.01148 10.7338 2.92305 11.9237 3.06709 13.0968C3.21112 14.2699 3.58481 15.4031 4.1668 16.4318C4.74879 17.4605 5.5277 18.3644 6.45905 19.0921C7.3904 19.8197 8.45594 20.3568 9.59486 20.6727C10.7338 20.9885 11.9237 21.077 13.0968 20.9329L12 12L10.9032 3.06708Z" fill="black"/>
</g>
</svg>
